<?xml version="1.0" encoding="UTF-8" standalone="no"?>
<!-- Created with Inkscape (http://www.inkscape.org/) -->

<svg
   xmlns:dc="http://purl.org/dc/elements/1.1/"
   xmlns:cc="http://creativecommons.org/ns#"
   xmlns:rdf="http://www.w3.org/1999/02/22-rdf-syntax-ns#"
   xmlns:svg="http://www.w3.org/2000/svg"
   xmlns="http://www.w3.org/2000/svg"
   xmlns:sodipodi="http://sodipodi.sourceforge.net/DTD/sodipodi-0.dtd"
   xmlns:inkscape="http://www.inkscape.org/namespaces/inkscape"
   id="svg2"
   version="1.1"
   inkscape:version="0.91 r13725"
   width="1968.7772"
   height="521.3786"
   viewBox="0 0 1968.7772 521.3786"
   sodipodi:docname="TIM_logo_2016.svg">
  <metadata
     id="metadata8">
    <rdf:RDF>
      <cc:Work
         rdf:about="">
        <dc:format>image/svg+xml</dc:format>
        <dc:type
           rdf:resource="http://purl.org/dc/dcmitype/StillImage" />
        <dc:title></dc:title>
      </cc:Work>
    </rdf:RDF>
  </metadata>
  <defs
     id="defs6" />
  <sodipodi:namedview
     pagecolor="#ffffff"
     bordercolor="#666666"
     borderopacity="1"
     objecttolerance="10"
     gridtolerance="10"
     guidetolerance="10"
     inkscape:pageopacity="0"
     inkscape:pageshadow="2"
     inkscape:window-width="1306"
     inkscape:window-height="678"
     id="namedview4"
     showgrid="false"
     inkscape:snap-bbox="true"
     inkscape:bbox-paths="true"
     inkscape:bbox-nodes="true"
     inkscape:snap-bbox-edge-midpoints="true"
     inkscape:snap-bbox-midpoints="true"
     inkscape:object-paths="true"
     inkscape:snap-intersection-paths="true"
     inkscape:object-nodes="true"
     inkscape:snap-smooth-nodes="true"
     inkscape:snap-midpoints="true"
     inkscape:snap-object-midpoints="true"
     inkscape:snap-center="true"
     fit-margin-top="0"
     fit-margin-left="0"
     fit-margin-right="0"
     fit-margin-bottom="0"
     inkscape:zoom="0.41275138"
     inkscape:cx="1008.6015"
     inkscape:cy="205.4956"
     inkscape:window-x="1"
     inkscape:window-y="0"
     inkscape:window-maximized="0"
     inkscape:current-layer="svg2" />
  <g
     id="g4682"
     transform="translate(-246.22279,-138.62552)">
    <path
       sodipodi:nodetypes="cscscsssccscscscscsccscsccscscsccccscscssssssssssscscsccssccscsccscscc"
       style="fill:#0b3d86;fill-opacity:1"
       d="m 1156.25,659.23997 c -1.7187,-0.29656 -4.9845,-0.84075 -7.2572,-1.20931 -2.2727,-0.36856 -5.2259,-1.76372 -6.5625,-3.10039 C 1140.0434,652.54343 1140,648.91479 1140,451.875 l 0,-200.625 -58.5937,0 c -32.2266,0 -60.3897,-0.35919 -62.5847,-0.79819 -8.1927,-1.63854 -8.1966,-1.66557 -8.1966,-56.82707 0,-47.03225 0.1238,-49.74818 2.3812,-52.24305 l 2.3813,-2.63169 183.9875,0 c 179.0159,0 184.0455,0.064 186.1316,2.36926 3.5124,3.88103 4.857,24.35802 4.1126,62.63074 -0.6691,34.41164 -1.5806,41.95861 -5.4566,45.1772 -1.6482,1.36877 -13.9986,1.76703 -63.7285,2.05503 l -61.6841,0.35722 0,200.49099 c 0,178.50782 -0.2102,200.7012 -1.9171,202.40816 -4.2387,4.23855 -10.7405,4.86114 -54.3329,5.20269 -23.7188,0.18583 -44.5313,0.0952 -46.25,-0.20132 z m 332.5,0.125 c -1.0312,-0.25085 -4.5874,-0.81363 -7.9026,-1.25063 -3.3998,-0.44816 -7.0783,-1.84515 -8.4375,-3.20444 -2.364,-2.36399 -2.4099,-7.22882 -2.4099,-255.34116 0,-239.3098 0.1175,-253.03641 2.1875,-254.88373 5.2314,-4.66921 12.0738,-5.31033 56.5625,-5.29976 43.9951,0.01 50.06,0.55348 57.1875,5.12031 l 2.8125,1.80208 0,253.00689 c 0,225.7021 -0.2069,253.21381 -1.9171,254.92407 -4.2565,4.25648 -10.718,4.88646 -53.7079,5.23646 -23.375,0.19032 -43.3437,0.14078 -44.375,-0.11012 z m 217.5,0 c -1.0312,-0.25085 -4.4645,-0.79521 -7.6296,-1.20968 -3.165,-0.41449 -6.9619,-1.8784 -8.4375,-3.25314 l -2.6829,-2.49954 0,-252.31282 c 0,-238.49104 0.12,-252.45283 2.1875,-254.86843 4.1829,-4.88682 10.282,-5.55357 56.2073,-6.14457 55.9,-0.71935 74.0503,0.97242 81.9965,7.64283 2.3047,1.93463 14.1876,28.78037 43.7792,98.90538 56.2585,133.31946 64.9551,154.99002 77.754,193.75 3.6322,11 6.9076,19.15625 7.2786,18.125 0.371,-1.03125 4.4156,-12.28125 8.9881,-25 4.5725,-12.71875 13.2195,-35.5 19.2155,-50.625 18.8433,-47.53278 95.4015,-231.08811 97.8793,-234.67468 1.5996,-2.31538 4.6695,-4.13737 9.4775,-5.625 6.2807,-1.94327 12.8797,-2.20032 56.4865,-2.20032 50.5702,0 56.1322,0.44984 63.4375,5.13056 l 2.8125,1.80208 0,253.00688 c 0,226.5037 -0.2023,253.20922 -1.9313,254.93817 -4.4917,4.49171 -11.3081,5.11246 -56.1937,5.11745 -46.6704,0.005 -53.7245,-0.53877 -57.9421,-4.46799 l -2.6829,-2.49954 0,-149.95131 c 0,-85.30374 -0.4734,-149.9513 -1.0981,-149.9513 -0.6039,0 -3.091,5.76562 -5.5269,12.8125 -8.4505,24.4476 -81.1917,202.82719 -83.8407,205.59844 -4.1954,4.38918 -13.3418,5.33906 -51.4093,5.33906 -36.6091,0 -46.5782,-0.92665 -51.875,-4.82187 -2.3636,-1.73822 -13.4065,-26.32792 -45.3244,-100.92563 -23.2096,-54.24512 -43.5027,-102.84625 -45.0957,-108.0025 -1.5932,-5.15625 -3.4159,-9.23446 -4.0508,-9.06269 -0.693,0.18753 -1.4039,60.26713 -1.7791,150.35821 -0.548,131.54717 -0.8561,150.19383 -2.5,151.2457 -5.5413,3.54583 -12.1879,4.10055 -53.125,4.43384 -23.375,0.19031 -43.3438,0.14078 -44.375,-0.11012 z"
       id="path4660"
       inkscape:connector-curvature="0" />
    <path
       sodipodi:nodetypes="csscsscccccsccccccsscssscccsssscccsccccssscsscccccssscsscssccccc"
       style="fill:#fe000d;fill-opacity:1"
       d="m 265.63079,657.99617 c -7.05089,-2.58033 -15.17757,-10.98653 -17.56234,-18.16642 -1.6397,-4.93668 -1.90725,-11.40879 -1.58329,-38.29968 l 0.38984,-32.35913 3.78305,-6.11493 c 2.34223,-3.78599 6.11331,-7.55574 9.90146,-9.89796 l 6.11844,-3.78305 114.78602,-0.33173 114.78603,-0.33171 0,55.64421 0,55.64423 -112.8125,-0.0881 c -95.7121,-0.0747 -113.56954,-0.36512 -117.80671,-1.91575 z M 620,604.35577 l 0,-55.64421 114.78602,0.33171 114.78603,0.33173 6.11844,3.78305 c 3.78815,2.34222 7.55923,6.11198 9.90146,9.89796 l 3.78305,6.11493 0.38984,32.35913 c 0.45177,37.50025 -0.15837,40.9087 -8.84813,49.42832 C 851.19997,660.48487 858.09493,660 732.34284,660 L 620,660 Z M 266.06525,453.26135 c -8.50249,-3.03741 -14.8572,-9.52305 -17.967,-18.33719 -1.43574,-4.0693 -1.84825,-11.9889 -1.84825,-35.48365 0,-34.21514 0.74011,-38.28957 8.38489,-46.16025 9.34304,-9.61914 -0.99546,-8.86626 126.92761,-9.24318 l 114.6875,-0.33793 0,55.65043 0,55.65042 -112.8125,-0.0549 c -89.42604,-0.0435 -113.75775,-0.39254 -117.37225,-1.68378 z M 620,399.375 l 0,-55.67585 114.6875,0.33792 c 127.15654,0.37467 117.63771,-0.26956 126.46635,8.55908 8.2254,8.22541 8.22115,8.20115 8.22115,46.87687 l 0,35.09803 -3.78305,6.11892 c -2.34446,3.7921 -6.10964,7.55752 -9.90134,9.90198 l -6.1183,3.78305 -114.78615,0.33792 L 620,455.05085 Z M 262.72624,246.75362 c -7.1144,-3.54525 -12.07039,-9.0901 -14.6928,-16.43858 -2.25802,-6.32738 -2.47,-63.32629 -0.26329,-70.79502 2.22007,-7.51401 12.45616,-17.40071 19.97609,-19.29425 8.49986,-2.1403 574.15395,-2.13035 581.29853,0.01 2.7279,0.8173 7.67527,3.92742 10.99415,6.91138 9.61267,8.64261 10.18927,11.61121 9.72592,50.07255 l -0.38984,32.35914 -3.78305,6.11492 c -2.34246,3.78638 -6.11308,7.5555 -9.90189,9.89797 l -6.11884,3.78305 -290.14941,0.32035 -290.14942,0.32036 -6.54615,-3.26209 z"
       id="path4680"
       inkscape:connector-curvature="0" />
  </g>
</svg>
